<?xml version="1.0" encoding="UTF-8" standalone="no"?>
<!DOCTYPE svg PUBLIC "-//W3C//DTD SVG 1.1//EN"
 "http://www.w3.org/Graphics/SVG/1.1/DTD/svg11.dtd">
<!-- Generated by graphviz version 2.40.1 (20161225.0304)
 -->
<!-- Title: batch Pages: 1 -->
<svg width="285pt" height="255pt"
 viewBox="0.00 0.00 285.00 255.00" xmlns="http://www.w3.org/2000/svg" xmlns:xlink="http://www.w3.org/1999/xlink">
<g id="graph0" class="graph" transform="scale(1 1) rotate(0) translate(4 251)">
<title>batch</title>
<polygon fill="#ffffff" stroke="transparent" points="-4,4 -4,-251 281,-251 281,4 -4,4"/>
<!-- batch -->
<g id="node1" class="node">
<title>batch</title>
<polygon fill="#efefef" stroke="transparent" points="46.5,-165.5 46.5,-200.5 231.5,-200.5 231.5,-165.5 46.5,-165.5"/>
<polygon fill="none" stroke="#000000" points="46.5,-165.5 46.5,-200.5 231.5,-200.5 231.5,-165.5 46.5,-165.5"/>
<text text-anchor="start" x="53.2056" y="-178.3" font-family="Arial Bold" font-size="18.00" fill="#000000">batch</text>
<text text-anchor="start" x="97.2264" y="-178.3" font-family="Arial" font-size="14.00" fill="#000000">    </text>
<text text-anchor="start" x="131.4312" y="-178.3" font-family="Arial" font-size="14.00" fill="#666666">[BASE TABLE]</text>
<polygon fill="none" stroke="#000000" points="46.5,-135.5 46.5,-165.5 231.5,-165.5 231.5,-135.5 46.5,-135.5"/>
<text text-anchor="start" x="53.5" y="-146.9" font-family="Arial" font-size="14.00" fill="#000000">bid </text>
<text text-anchor="start" x="76.0624" y="-146.9" font-family="Arial" font-size="14.00" fill="#666666">[int(10) unsigned]</text>
<polygon fill="none" stroke="#000000" points="46.5,-105.5 46.5,-135.5 231.5,-135.5 231.5,-105.5 46.5,-105.5"/>
<text text-anchor="start" x="53.5" y="-116.9" font-family="Arial" font-size="14.00" fill="#000000">token </text>
<text text-anchor="start" x="91.629" y="-116.9" font-family="Arial" font-size="14.00" fill="#666666">[varchar(64)]</text>
<polygon fill="none" stroke="#000000" points="46.5,-75.5 46.5,-105.5 231.5,-105.5 231.5,-75.5 46.5,-75.5"/>
<text text-anchor="start" x="53.5" y="-86.9" font-family="Arial" font-size="14.00" fill="#000000">timestamp </text>
<text text-anchor="start" x="121.9474" y="-86.9" font-family="Arial" font-size="14.00" fill="#666666">[int(11)]</text>
<polygon fill="none" stroke="#000000" points="46.5,-45.5 46.5,-75.5 231.5,-75.5 231.5,-45.5 46.5,-45.5"/>
<text text-anchor="start" x="53.5" y="-56.9" font-family="Arial" font-size="14.00" fill="#000000">batch </text>
<text text-anchor="start" x="91.629" y="-56.9" font-family="Arial" font-size="14.00" fill="#666666">[longblob]</text>
<polygon fill="none" stroke="#000000" stroke-width="3" points="44.5,-44.5 44.5,-202.5 232.5,-202.5 232.5,-44.5 44.5,-44.5"/>
</g>
</g>
</svg>
