<?xml version="1.0" encoding="UTF-8" standalone="no"?>
<!DOCTYPE svg PUBLIC "-//W3C//DTD SVG 1.1//EN"
 "http://www.w3.org/Graphics/SVG/1.1/DTD/svg11.dtd">
<!-- Generated by graphviz version 2.40.1 (20161225.0304)
 -->
<!-- Title: block_content_field_revision Pages: 1 -->
<svg width="467pt" height="375pt"
 viewBox="0.00 0.00 467.00 375.00" xmlns="http://www.w3.org/2000/svg" xmlns:xlink="http://www.w3.org/1999/xlink">
<g id="graph0" class="graph" transform="scale(1 1) rotate(0) translate(4 371)">
<title>block_content_field_revision</title>
<polygon fill="#ffffff" stroke="transparent" points="-4,4 -4,-371 463,-371 463,4 -4,4"/>
<!-- block_content_field_revision -->
<g id="node1" class="node">
<title>block_content_field_revision</title>
<polygon fill="#efefef" stroke="transparent" points="46.5,-285.5 46.5,-320.5 413.5,-320.5 413.5,-285.5 46.5,-285.5"/>
<polygon fill="none" stroke="#000000" points="46.5,-285.5 46.5,-320.5 413.5,-320.5 413.5,-285.5 46.5,-285.5"/>
<text text-anchor="start" x="53.1877" y="-298.3" font-family="Arial Bold" font-size="18.00" fill="#000000">block_content_field_revision</text>
<text text-anchor="start" x="279.2443" y="-298.3" font-family="Arial" font-size="14.00" fill="#000000">    </text>
<text text-anchor="start" x="313.4491" y="-298.3" font-family="Arial" font-size="14.00" fill="#666666">[BASE TABLE]</text>
<polygon fill="none" stroke="#000000" points="46.5,-255.5 46.5,-285.5 413.5,-285.5 413.5,-255.5 46.5,-255.5"/>
<text text-anchor="start" x="53.5" y="-266.9" font-family="Arial" font-size="14.00" fill="#000000">id </text>
<text text-anchor="start" x="68.2798" y="-266.9" font-family="Arial" font-size="14.00" fill="#666666">[int(10) unsigned]</text>
<polygon fill="none" stroke="#000000" points="46.5,-225.5 46.5,-255.5 413.5,-255.5 413.5,-225.5 46.5,-225.5"/>
<text text-anchor="start" x="53.5" y="-236.9" font-family="Arial" font-size="14.00" fill="#000000">revision_id </text>
<text text-anchor="start" x="124.284" y="-236.9" font-family="Arial" font-size="14.00" fill="#666666">[int(10) unsigned]</text>
<polygon fill="none" stroke="#000000" points="46.5,-195.5 46.5,-225.5 413.5,-225.5 413.5,-195.5 46.5,-195.5"/>
<text text-anchor="start" x="53.5" y="-206.9" font-family="Arial" font-size="14.00" fill="#000000">langcode </text>
<text text-anchor="start" x="114.1928" y="-206.9" font-family="Arial" font-size="14.00" fill="#666666">[varchar(12)]</text>
<polygon fill="none" stroke="#000000" points="46.5,-165.5 46.5,-195.5 413.5,-195.5 413.5,-165.5 46.5,-165.5"/>
<text text-anchor="start" x="53.5" y="-176.9" font-family="Arial" font-size="14.00" fill="#000000">status </text>
<text text-anchor="start" x="94.737" y="-176.9" font-family="Arial" font-size="14.00" fill="#666666">[tinyint(4)]</text>
<polygon fill="none" stroke="#000000" points="46.5,-135.5 46.5,-165.5 413.5,-165.5 413.5,-135.5 46.5,-135.5"/>
<text text-anchor="start" x="53.5" y="-146.9" font-family="Arial" font-size="14.00" fill="#000000">info </text>
<text text-anchor="start" x="79.953" y="-146.9" font-family="Arial" font-size="14.00" fill="#666666">[varchar(255)]</text>
<polygon fill="none" stroke="#000000" points="46.5,-105.5 46.5,-135.5 413.5,-135.5 413.5,-105.5 46.5,-105.5"/>
<text text-anchor="start" x="53.5" y="-116.9" font-family="Arial" font-size="14.00" fill="#000000">changed </text>
<text text-anchor="start" x="111.0862" y="-116.9" font-family="Arial" font-size="14.00" fill="#666666">[int(11)]</text>
<polygon fill="none" stroke="#000000" points="46.5,-75.5 46.5,-105.5 413.5,-105.5 413.5,-75.5 46.5,-75.5"/>
<text text-anchor="start" x="53.5" y="-86.9" font-family="Arial" font-size="14.00" fill="#000000">default_langcode </text>
<text text-anchor="start" x="163.9936" y="-86.9" font-family="Arial" font-size="14.00" fill="#666666">[tinyint(4)]</text>
<polygon fill="none" stroke="#000000" points="46.5,-45.5 46.5,-75.5 413.5,-75.5 413.5,-45.5 46.5,-45.5"/>
<text text-anchor="start" x="53.5" y="-56.9" font-family="Arial" font-size="14.00" fill="#000000">revision_translation_affected </text>
<text text-anchor="start" x="235.5476" y="-56.9" font-family="Arial" font-size="14.00" fill="#666666">[tinyint(4)]</text>
<polygon fill="none" stroke="#000000" stroke-width="3" points="44.5,-44.5 44.5,-322.5 414.5,-322.5 414.5,-44.5 44.5,-44.5"/>
</g>
</g>
</svg>
