<?xml version="1.0" encoding="UTF-8" standalone="no"?>
<!DOCTYPE svg PUBLIC "-//W3C//DTD SVG 1.1//EN"
 "http://www.w3.org/Graphics/SVG/1.1/DTD/svg11.dtd">
<!-- Generated by graphviz version 2.40.1 (20161225.0304)
 -->
<!-- Title: block_content_revision__body Pages: 1 -->
<svg width="483pt" height="405pt"
 viewBox="0.00 0.00 483.00 405.00" xmlns="http://www.w3.org/2000/svg" xmlns:xlink="http://www.w3.org/1999/xlink">
<g id="graph0" class="graph" transform="scale(1 1) rotate(0) translate(4 401)">
<title>block_content_revision__body</title>
<polygon fill="#ffffff" stroke="transparent" points="-4,4 -4,-401 479,-401 479,4 -4,4"/>
<!-- block_content_revision__body -->
<g id="node1" class="node">
<title>block_content_revision__body</title>
<polygon fill="#efefef" stroke="transparent" points="46.5,-315.5 46.5,-350.5 429.5,-350.5 429.5,-315.5 46.5,-315.5"/>
<polygon fill="none" stroke="#000000" points="46.5,-315.5 46.5,-350.5 429.5,-350.5 429.5,-315.5 46.5,-315.5"/>
<text text-anchor="start" x="53.1768" y="-328.3" font-family="Arial Bold" font-size="18.00" fill="#000000">block_content_revision__body</text>
<text text-anchor="start" x="295.2552" y="-328.3" font-family="Arial" font-size="14.00" fill="#000000">    </text>
<text text-anchor="start" x="329.46" y="-328.3" font-family="Arial" font-size="14.00" fill="#666666">[BASE TABLE]</text>
<polygon fill="none" stroke="#000000" points="46.5,-285.5 46.5,-315.5 429.5,-315.5 429.5,-285.5 46.5,-285.5"/>
<text text-anchor="start" x="53.5" y="-296.9" font-family="Arial" font-size="14.00" fill="#000000">bundle </text>
<text text-anchor="start" x="99.4102" y="-296.9" font-family="Arial" font-size="14.00" fill="#666666">[varchar(128)]</text>
<polygon fill="none" stroke="#000000" points="46.5,-255.5 46.5,-285.5 429.5,-285.5 429.5,-255.5 46.5,-255.5"/>
<text text-anchor="start" x="53.5" y="-266.9" font-family="Arial" font-size="14.00" fill="#000000">deleted </text>
<text text-anchor="start" x="103.3008" y="-266.9" font-family="Arial" font-size="14.00" fill="#666666">[tinyint(4)]</text>
<polygon fill="none" stroke="#000000" points="46.5,-225.5 46.5,-255.5 429.5,-255.5 429.5,-225.5 46.5,-225.5"/>
<text text-anchor="start" x="53.5" y="-236.9" font-family="Arial" font-size="14.00" fill="#000000">entity_id </text>
<text text-anchor="start" x="109.5154" y="-236.9" font-family="Arial" font-size="14.00" fill="#666666">[int(10) unsigned]</text>
<polygon fill="none" stroke="#000000" points="46.5,-195.5 46.5,-225.5 429.5,-225.5 429.5,-195.5 46.5,-195.5"/>
<text text-anchor="start" x="53.5" y="-206.9" font-family="Arial" font-size="14.00" fill="#000000">revision_id </text>
<text text-anchor="start" x="124.284" y="-206.9" font-family="Arial" font-size="14.00" fill="#666666">[int(10) unsigned]</text>
<polygon fill="none" stroke="#000000" points="46.5,-165.5 46.5,-195.5 429.5,-195.5 429.5,-165.5 46.5,-165.5"/>
<text text-anchor="start" x="53.5" y="-176.9" font-family="Arial" font-size="14.00" fill="#000000">langcode </text>
<text text-anchor="start" x="114.1928" y="-176.9" font-family="Arial" font-size="14.00" fill="#666666">[varchar(32)]</text>
<polygon fill="none" stroke="#000000" points="46.5,-135.5 46.5,-165.5 429.5,-165.5 429.5,-135.5 46.5,-135.5"/>
<text text-anchor="start" x="53.5" y="-146.9" font-family="Arial" font-size="14.00" fill="#000000">delta </text>
<text text-anchor="start" x="87.7356" y="-146.9" font-family="Arial" font-size="14.00" fill="#666666">[int(10) unsigned]</text>
<polygon fill="none" stroke="#000000" points="46.5,-105.5 46.5,-135.5 429.5,-135.5 429.5,-105.5 46.5,-105.5"/>
<text text-anchor="start" x="53.5" y="-116.9" font-family="Arial" font-size="14.00" fill="#000000">body_value </text>
<text text-anchor="start" x="128.9754" y="-116.9" font-family="Arial" font-size="14.00" fill="#666666">[longtext]</text>
<polygon fill="none" stroke="#000000" points="46.5,-75.5 46.5,-105.5 429.5,-105.5 429.5,-75.5 46.5,-75.5"/>
<text text-anchor="start" x="53.5" y="-86.9" font-family="Arial" font-size="14.00" fill="#000000">body_summary </text>
<text text-anchor="start" x="153.068" y="-86.9" font-family="Arial" font-size="14.00" fill="#666666">[longtext]</text>
<polygon fill="none" stroke="#000000" points="46.5,-45.5 46.5,-75.5 429.5,-75.5 429.5,-45.5 46.5,-45.5"/>
<text text-anchor="start" x="53.5" y="-56.9" font-family="Arial" font-size="14.00" fill="#000000">body_format </text>
<text text-anchor="start" x="135.1886" y="-56.9" font-family="Arial" font-size="14.00" fill="#666666">[varchar(255)]</text>
<polygon fill="none" stroke="#000000" stroke-width="3" points="44.5,-44.5 44.5,-352.5 430.5,-352.5 430.5,-44.5 44.5,-44.5"/>
</g>
</g>
</svg>
