<?xml version="1.0" encoding="UTF-8" standalone="no"?>
<!DOCTYPE svg PUBLIC "-//W3C//DTD SVG 1.1//EN"
 "http://www.w3.org/Graphics/SVG/1.1/DTD/svg11.dtd">
<!-- Generated by graphviz version 2.40.1 (20161225.0304)
 -->
<!-- Title: comment_entity_statistics Pages: 1 -->
<svg width="447pt" height="375pt"
 viewBox="0.00 0.00 447.00 375.00" xmlns="http://www.w3.org/2000/svg" xmlns:xlink="http://www.w3.org/1999/xlink">
<g id="graph0" class="graph" transform="scale(1 1) rotate(0) translate(4 371)">
<title>comment_entity_statistics</title>
<polygon fill="#ffffff" stroke="transparent" points="-4,4 -4,-371 443,-371 443,4 -4,4"/>
<!-- comment_entity_statistics -->
<g id="node1" class="node">
<title>comment_entity_statistics</title>
<polygon fill="#efefef" stroke="transparent" points="46.5,-285.5 46.5,-320.5 393.5,-320.5 393.5,-285.5 46.5,-285.5"/>
<polygon fill="none" stroke="#000000" points="46.5,-285.5 46.5,-320.5 393.5,-320.5 393.5,-285.5 46.5,-285.5"/>
<text text-anchor="start" x="53.2011" y="-298.3" font-family="Arial Bold" font-size="18.00" fill="#000000">comment_entity_statistics</text>
<text text-anchor="start" x="259.2309" y="-298.3" font-family="Arial" font-size="14.00" fill="#000000">    </text>
<text text-anchor="start" x="293.4357" y="-298.3" font-family="Arial" font-size="14.00" fill="#666666">[BASE TABLE]</text>
<polygon fill="none" stroke="#000000" points="46.5,-255.5 46.5,-285.5 393.5,-285.5 393.5,-255.5 46.5,-255.5"/>
<text text-anchor="start" x="53.5" y="-266.9" font-family="Arial" font-size="14.00" fill="#000000">entity_id </text>
<text text-anchor="start" x="109.5154" y="-266.9" font-family="Arial" font-size="14.00" fill="#666666">[int(10) unsigned]</text>
<polygon fill="none" stroke="#000000" points="46.5,-225.5 46.5,-255.5 393.5,-255.5 393.5,-225.5 46.5,-225.5"/>
<text text-anchor="start" x="53.5" y="-236.9" font-family="Arial" font-size="14.00" fill="#000000">entity_type </text>
<text text-anchor="start" x="125.082" y="-236.9" font-family="Arial" font-size="14.00" fill="#666666">[varchar(32)]</text>
<polygon fill="none" stroke="#000000" points="46.5,-195.5 46.5,-225.5 393.5,-225.5 393.5,-195.5 46.5,-195.5"/>
<text text-anchor="start" x="53.5" y="-206.9" font-family="Arial" font-size="14.00" fill="#000000">field_name </text>
<text text-anchor="start" x="125.8506" y="-206.9" font-family="Arial" font-size="14.00" fill="#666666">[varchar(32)]</text>
<polygon fill="none" stroke="#000000" points="46.5,-165.5 46.5,-195.5 393.5,-195.5 393.5,-165.5 46.5,-165.5"/>
<text text-anchor="start" x="53.5" y="-176.9" font-family="Arial" font-size="14.00" fill="#000000">cid </text>
<text text-anchor="start" x="75.2798" y="-176.9" font-family="Arial" font-size="14.00" fill="#666666">[int(11)]</text>
<polygon fill="none" stroke="#000000" points="46.5,-135.5 46.5,-165.5 393.5,-165.5 393.5,-135.5 46.5,-135.5"/>
<text text-anchor="start" x="53.5" y="-146.9" font-family="Arial" font-size="14.00" fill="#000000">last_comment_timestamp </text>
<text text-anchor="start" x="216.852" y="-146.9" font-family="Arial" font-size="14.00" fill="#666666">[int(11)]</text>
<polygon fill="none" stroke="#000000" points="46.5,-105.5 46.5,-135.5 393.5,-135.5 393.5,-105.5 46.5,-105.5"/>
<text text-anchor="start" x="53.5" y="-116.9" font-family="Arial" font-size="14.00" fill="#000000">last_comment_name </text>
<text text-anchor="start" x="187.3036" y="-116.9" font-family="Arial" font-size="14.00" fill="#666666">[varchar(60)]</text>
<polygon fill="none" stroke="#000000" points="46.5,-75.5 46.5,-105.5 393.5,-105.5 393.5,-75.5 46.5,-75.5"/>
<text text-anchor="start" x="53.5" y="-86.9" font-family="Arial" font-size="14.00" fill="#000000">last_comment_uid </text>
<text text-anchor="start" x="170.967" y="-86.9" font-family="Arial" font-size="14.00" fill="#666666">[int(10) unsigned]</text>
<polygon fill="none" stroke="#000000" points="46.5,-45.5 46.5,-75.5 393.5,-75.5 393.5,-45.5 46.5,-45.5"/>
<text text-anchor="start" x="53.5" y="-56.9" font-family="Arial" font-size="14.00" fill="#000000">comment_count </text>
<text text-anchor="start" x="156.9712" y="-56.9" font-family="Arial" font-size="14.00" fill="#666666">[int(10) unsigned]</text>
<polygon fill="none" stroke="#000000" stroke-width="3" points="44.5,-44.5 44.5,-322.5 394.5,-322.5 394.5,-44.5 44.5,-44.5"/>
</g>
</g>
</svg>
