<?xml version="1.0" encoding="UTF-8" standalone="no"?>
<!DOCTYPE svg PUBLIC "-//W3C//DTD SVG 1.1//EN"
 "http://www.w3.org/Graphics/SVG/1.1/DTD/svg11.dtd">
<!-- Generated by graphviz version 2.40.1 (20161225.0304)
 -->
<!-- Title: comment_field_data Pages: 1 -->
<svg width="403pt" height="675pt"
 viewBox="0.00 0.00 403.00 675.00" xmlns="http://www.w3.org/2000/svg" xmlns:xlink="http://www.w3.org/1999/xlink">
<g id="graph0" class="graph" transform="scale(1 1) rotate(0) translate(4 671)">
<title>comment_field_data</title>
<polygon fill="#ffffff" stroke="transparent" points="-4,4 -4,-671 399,-671 399,4 -4,4"/>
<!-- comment_field_data -->
<g id="node1" class="node">
<title>comment_field_data</title>
<polygon fill="#efefef" stroke="transparent" points="46.5,-585.5 46.5,-620.5 349.5,-620.5 349.5,-585.5 46.5,-585.5"/>
<polygon fill="none" stroke="#000000" points="46.5,-585.5 46.5,-620.5 349.5,-620.5 349.5,-585.5 46.5,-585.5"/>
<text text-anchor="start" x="53.1953" y="-598.3" font-family="Arial Bold" font-size="18.00" fill="#000000">comment_field_data</text>
<text text-anchor="start" x="215.2367" y="-598.3" font-family="Arial" font-size="14.00" fill="#000000">    </text>
<text text-anchor="start" x="249.4415" y="-598.3" font-family="Arial" font-size="14.00" fill="#666666">[BASE TABLE]</text>
<polygon fill="none" stroke="#000000" points="46.5,-555.5 46.5,-585.5 349.5,-585.5 349.5,-555.5 46.5,-555.5"/>
<text text-anchor="start" x="53.5" y="-566.9" font-family="Arial" font-size="14.00" fill="#000000">cid </text>
<text text-anchor="start" x="75.2798" y="-566.9" font-family="Arial" font-size="14.00" fill="#666666">[int(10) unsigned]</text>
<polygon fill="none" stroke="#000000" points="46.5,-525.5 46.5,-555.5 349.5,-555.5 349.5,-525.5 46.5,-525.5"/>
<text text-anchor="start" x="53.5" y="-536.9" font-family="Arial" font-size="14.00" fill="#000000">comment_type </text>
<text text-anchor="start" x="149.1886" y="-536.9" font-family="Arial" font-size="14.00" fill="#666666">[varchar(32)]</text>
<polygon fill="none" stroke="#000000" points="46.5,-495.5 46.5,-525.5 349.5,-525.5 349.5,-495.5 46.5,-495.5"/>
<text text-anchor="start" x="53.5" y="-506.9" font-family="Arial" font-size="14.00" fill="#000000">langcode </text>
<text text-anchor="start" x="114.1928" y="-506.9" font-family="Arial" font-size="14.00" fill="#666666">[varchar(12)]</text>
<polygon fill="none" stroke="#000000" points="46.5,-465.5 46.5,-495.5 349.5,-495.5 349.5,-465.5 46.5,-465.5"/>
<text text-anchor="start" x="53.5" y="-476.9" font-family="Arial" font-size="14.00" fill="#000000">status </text>
<text text-anchor="start" x="94.737" y="-476.9" font-family="Arial" font-size="14.00" fill="#666666">[tinyint(4)]</text>
<polygon fill="none" stroke="#000000" points="46.5,-435.5 46.5,-465.5 349.5,-465.5 349.5,-435.5 46.5,-435.5"/>
<text text-anchor="start" x="53.5" y="-446.9" font-family="Arial" font-size="14.00" fill="#000000">uid </text>
<text text-anchor="start" x="76.0624" y="-446.9" font-family="Arial" font-size="14.00" fill="#666666">[int(10) unsigned]</text>
<polygon fill="none" stroke="#000000" points="46.5,-405.5 46.5,-435.5 349.5,-435.5 349.5,-405.5 46.5,-405.5"/>
<text text-anchor="start" x="53.5" y="-416.9" font-family="Arial" font-size="14.00" fill="#000000">pid </text>
<text text-anchor="start" x="76.0624" y="-416.9" font-family="Arial" font-size="14.00" fill="#666666">[int(10) unsigned]</text>
<polygon fill="none" stroke="#000000" points="46.5,-375.5 46.5,-405.5 349.5,-405.5 349.5,-375.5 46.5,-375.5"/>
<text text-anchor="start" x="53.5" y="-386.9" font-family="Arial" font-size="14.00" fill="#000000">entity_id </text>
<text text-anchor="start" x="109.5154" y="-386.9" font-family="Arial" font-size="14.00" fill="#666666">[int(10) unsigned]</text>
<polygon fill="none" stroke="#000000" points="46.5,-345.5 46.5,-375.5 349.5,-375.5 349.5,-345.5 46.5,-345.5"/>
<text text-anchor="start" x="53.5" y="-356.9" font-family="Arial" font-size="14.00" fill="#000000">subject </text>
<text text-anchor="start" x="101.7356" y="-356.9" font-family="Arial" font-size="14.00" fill="#666666">[varchar(64)]</text>
<polygon fill="none" stroke="#000000" points="46.5,-315.5 46.5,-345.5 349.5,-345.5 349.5,-315.5 46.5,-315.5"/>
<text text-anchor="start" x="53.5" y="-326.9" font-family="Arial" font-size="14.00" fill="#000000">name </text>
<text text-anchor="start" x="92.399" y="-326.9" font-family="Arial" font-size="14.00" fill="#666666">[varchar(60)]</text>
<polygon fill="none" stroke="#000000" points="46.5,-285.5 46.5,-315.5 349.5,-315.5 349.5,-285.5 46.5,-285.5"/>
<text text-anchor="start" x="53.5" y="-296.9" font-family="Arial" font-size="14.00" fill="#000000">mail </text>
<text text-anchor="start" x="83.047" y="-296.9" font-family="Arial" font-size="14.00" fill="#666666">[varchar(254)]</text>
<polygon fill="none" stroke="#000000" points="46.5,-255.5 46.5,-285.5 349.5,-285.5 349.5,-255.5 46.5,-255.5"/>
<text text-anchor="start" x="53.5" y="-266.9" font-family="Arial" font-size="14.00" fill="#000000">homepage </text>
<text text-anchor="start" x="123.5294" y="-266.9" font-family="Arial" font-size="14.00" fill="#666666">[varchar(255)]</text>
<polygon fill="none" stroke="#000000" points="46.5,-225.5 46.5,-255.5 349.5,-255.5 349.5,-225.5 46.5,-225.5"/>
<text text-anchor="start" x="53.5" y="-236.9" font-family="Arial" font-size="14.00" fill="#000000">hostname </text>
<text text-anchor="start" x="118.8548" y="-236.9" font-family="Arial" font-size="14.00" fill="#666666">[varchar(128)]</text>
<polygon fill="none" stroke="#000000" points="46.5,-195.5 46.5,-225.5 349.5,-225.5 349.5,-195.5 46.5,-195.5"/>
<text text-anchor="start" x="53.5" y="-206.9" font-family="Arial" font-size="14.00" fill="#000000">created </text>
<text text-anchor="start" x="104.0722" y="-206.9" font-family="Arial" font-size="14.00" fill="#666666">[int(11)]</text>
<polygon fill="none" stroke="#000000" points="46.5,-165.5 46.5,-195.5 349.5,-195.5 349.5,-165.5 46.5,-165.5"/>
<text text-anchor="start" x="53.5" y="-176.9" font-family="Arial" font-size="14.00" fill="#000000">changed </text>
<text text-anchor="start" x="111.0862" y="-176.9" font-family="Arial" font-size="14.00" fill="#666666">[int(11)]</text>
<polygon fill="none" stroke="#000000" points="46.5,-135.5 46.5,-165.5 349.5,-165.5 349.5,-135.5 46.5,-135.5"/>
<text text-anchor="start" x="53.5" y="-146.9" font-family="Arial" font-size="14.00" fill="#000000">thread </text>
<text text-anchor="start" x="97.0722" y="-146.9" font-family="Arial" font-size="14.00" fill="#666666">[varchar(255)]</text>
<polygon fill="none" stroke="#000000" points="46.5,-105.5 46.5,-135.5 349.5,-135.5 349.5,-105.5 46.5,-105.5"/>
<text text-anchor="start" x="53.5" y="-116.9" font-family="Arial" font-size="14.00" fill="#000000">entity_type </text>
<text text-anchor="start" x="125.082" y="-116.9" font-family="Arial" font-size="14.00" fill="#666666">[varchar(32)]</text>
<polygon fill="none" stroke="#000000" points="46.5,-75.5 46.5,-105.5 349.5,-105.5 349.5,-75.5 46.5,-75.5"/>
<text text-anchor="start" x="53.5" y="-86.9" font-family="Arial" font-size="14.00" fill="#000000">field_name </text>
<text text-anchor="start" x="125.8506" y="-86.9" font-family="Arial" font-size="14.00" fill="#666666">[varchar(32)]</text>
<polygon fill="none" stroke="#000000" points="46.5,-45.5 46.5,-75.5 349.5,-75.5 349.5,-45.5 46.5,-45.5"/>
<text text-anchor="start" x="53.5" y="-56.9" font-family="Arial" font-size="14.00" fill="#000000">default_langcode </text>
<text text-anchor="start" x="163.9936" y="-56.9" font-family="Arial" font-size="14.00" fill="#666666">[tinyint(4)]</text>
<polygon fill="none" stroke="#000000" stroke-width="3" points="44.5,-44.5 44.5,-622.5 350.5,-622.5 350.5,-44.5 44.5,-44.5"/>
</g>
</g>
</svg>
