<?xml version="1.0" encoding="UTF-8" standalone="no"?>
<!DOCTYPE svg PUBLIC "-//W3C//DTD SVG 1.1//EN"
 "http://www.w3.org/Graphics/SVG/1.1/DTD/svg11.dtd">
<!-- Generated by graphviz version 2.40.1 (20161225.0304)
 -->
<!-- Title: locale_file Pages: 1 -->
<svg width="321pt" height="345pt"
 viewBox="0.00 0.00 321.00 345.00" xmlns="http://www.w3.org/2000/svg" xmlns:xlink="http://www.w3.org/1999/xlink">
<g id="graph0" class="graph" transform="scale(1 1) rotate(0) translate(4 341)">
<title>locale_file</title>
<polygon fill="#ffffff" stroke="transparent" points="-4,4 -4,-341 317,-341 317,4 -4,4"/>
<!-- locale_file -->
<g id="node1" class="node">
<title>locale_file</title>
<polygon fill="#efefef" stroke="transparent" points="46.5,-255.5 46.5,-290.5 267.5,-290.5 267.5,-255.5 46.5,-255.5"/>
<polygon fill="none" stroke="#000000" points="46.5,-255.5 46.5,-290.5 267.5,-290.5 267.5,-255.5 46.5,-255.5"/>
<text text-anchor="start" x="53.211" y="-268.3" font-family="Arial Bold" font-size="18.00" fill="#000000">locale_file</text>
<text text-anchor="start" x="133.221" y="-268.3" font-family="Arial" font-size="14.00" fill="#000000">    </text>
<text text-anchor="start" x="167.4258" y="-268.3" font-family="Arial" font-size="14.00" fill="#666666">[BASE TABLE]</text>
<polygon fill="none" stroke="#000000" points="46.5,-225.5 46.5,-255.5 267.5,-255.5 267.5,-225.5 46.5,-225.5"/>
<text text-anchor="start" x="53.5" y="-236.9" font-family="Arial" font-size="14.00" fill="#000000">project </text>
<text text-anchor="start" x="99.3962" y="-236.9" font-family="Arial" font-size="14.00" fill="#666666">[varchar(255)]</text>
<polygon fill="none" stroke="#000000" points="46.5,-195.5 46.5,-225.5 267.5,-225.5 267.5,-195.5 46.5,-195.5"/>
<text text-anchor="start" x="53.5" y="-206.9" font-family="Arial" font-size="14.00" fill="#000000">langcode </text>
<text text-anchor="start" x="114.1928" y="-206.9" font-family="Arial" font-size="14.00" fill="#666666">[varchar(12)]</text>
<polygon fill="none" stroke="#000000" points="46.5,-165.5 46.5,-195.5 267.5,-195.5 267.5,-165.5 46.5,-165.5"/>
<text text-anchor="start" x="53.5" y="-176.9" font-family="Arial" font-size="14.00" fill="#000000">filename </text>
<text text-anchor="start" x="110.2854" y="-176.9" font-family="Arial" font-size="14.00" fill="#666666">[varchar(255)]</text>
<polygon fill="none" stroke="#000000" points="46.5,-135.5 46.5,-165.5 267.5,-165.5 267.5,-135.5 46.5,-135.5"/>
<text text-anchor="start" x="53.5" y="-146.9" font-family="Arial" font-size="14.00" fill="#000000">version </text>
<text text-anchor="start" x="102.5056" y="-146.9" font-family="Arial" font-size="14.00" fill="#666666">[varchar(128)]</text>
<polygon fill="none" stroke="#000000" points="46.5,-105.5 46.5,-135.5 267.5,-135.5 267.5,-105.5 46.5,-105.5"/>
<text text-anchor="start" x="53.5" y="-116.9" font-family="Arial" font-size="14.00" fill="#000000">uri </text>
<text text-anchor="start" x="72.9404" y="-116.9" font-family="Arial" font-size="14.00" fill="#666666">[varchar(255)]</text>
<polygon fill="none" stroke="#000000" points="46.5,-75.5 46.5,-105.5 267.5,-105.5 267.5,-75.5 46.5,-75.5"/>
<text text-anchor="start" x="53.5" y="-86.9" font-family="Arial" font-size="14.00" fill="#000000">timestamp </text>
<text text-anchor="start" x="121.9474" y="-86.9" font-family="Arial" font-size="14.00" fill="#666666">[int(11)]</text>
<polygon fill="none" stroke="#000000" points="46.5,-45.5 46.5,-75.5 267.5,-75.5 267.5,-45.5 46.5,-45.5"/>
<text text-anchor="start" x="53.5" y="-56.9" font-family="Arial" font-size="14.00" fill="#000000">last_checked </text>
<text text-anchor="start" x="139.0834" y="-56.9" font-family="Arial" font-size="14.00" fill="#666666">[int(11)]</text>
<polygon fill="none" stroke="#000000" stroke-width="3" points="44.5,-44.5 44.5,-292.5 268.5,-292.5 268.5,-44.5 44.5,-44.5"/>
</g>
</g>
</svg>
