<?xml version="1.0" encoding="UTF-8" standalone="no"?>
<!DOCTYPE svg PUBLIC "-//W3C//DTD SVG 1.1//EN"
 "http://www.w3.org/Graphics/SVG/1.1/DTD/svg11.dtd">
<!-- Generated by graphviz version 2.40.1 (20161225.0304)
 -->
<!-- Title: node__field_image Pages: 1 -->
<svg width="393pt" height="465pt"
 viewBox="0.00 0.00 393.00 465.00" xmlns="http://www.w3.org/2000/svg" xmlns:xlink="http://www.w3.org/1999/xlink">
<g id="graph0" class="graph" transform="scale(1 1) rotate(0) translate(4 461)">
<title>node__field_image</title>
<polygon fill="#ffffff" stroke="transparent" points="-4,4 -4,-461 389,-461 389,4 -4,4"/>
<!-- node__field_image -->
<g id="node1" class="node">
<title>node__field_image</title>
<polygon fill="#efefef" stroke="transparent" points="46.5,-375.5 46.5,-410.5 339.5,-410.5 339.5,-375.5 46.5,-375.5"/>
<polygon fill="none" stroke="#000000" points="46.5,-375.5 46.5,-410.5 339.5,-410.5 339.5,-375.5 46.5,-375.5"/>
<text text-anchor="start" x="53.1903" y="-388.3" font-family="Arial Bold" font-size="18.00" fill="#000000">node__field_image</text>
<text text-anchor="start" x="205.2417" y="-388.3" font-family="Arial" font-size="14.00" fill="#000000">    </text>
<text text-anchor="start" x="239.4465" y="-388.3" font-family="Arial" font-size="14.00" fill="#666666">[BASE TABLE]</text>
<polygon fill="none" stroke="#000000" points="46.5,-345.5 46.5,-375.5 339.5,-375.5 339.5,-345.5 46.5,-345.5"/>
<text text-anchor="start" x="53.5" y="-356.9" font-family="Arial" font-size="14.00" fill="#000000">bundle </text>
<text text-anchor="start" x="99.4102" y="-356.9" font-family="Arial" font-size="14.00" fill="#666666">[varchar(128)]</text>
<polygon fill="none" stroke="#000000" points="46.5,-315.5 46.5,-345.5 339.5,-345.5 339.5,-315.5 46.5,-315.5"/>
<text text-anchor="start" x="53.5" y="-326.9" font-family="Arial" font-size="14.00" fill="#000000">deleted </text>
<text text-anchor="start" x="103.3008" y="-326.9" font-family="Arial" font-size="14.00" fill="#666666">[tinyint(4)]</text>
<polygon fill="none" stroke="#000000" points="46.5,-285.5 46.5,-315.5 339.5,-315.5 339.5,-285.5 46.5,-285.5"/>
<text text-anchor="start" x="53.5" y="-296.9" font-family="Arial" font-size="14.00" fill="#000000">entity_id </text>
<text text-anchor="start" x="109.5154" y="-296.9" font-family="Arial" font-size="14.00" fill="#666666">[int(10) unsigned]</text>
<polygon fill="none" stroke="#000000" points="46.5,-255.5 46.5,-285.5 339.5,-285.5 339.5,-255.5 46.5,-255.5"/>
<text text-anchor="start" x="53.5" y="-266.9" font-family="Arial" font-size="14.00" fill="#000000">revision_id </text>
<text text-anchor="start" x="124.284" y="-266.9" font-family="Arial" font-size="14.00" fill="#666666">[int(10) unsigned]</text>
<polygon fill="none" stroke="#000000" points="46.5,-225.5 46.5,-255.5 339.5,-255.5 339.5,-225.5 46.5,-225.5"/>
<text text-anchor="start" x="53.5" y="-236.9" font-family="Arial" font-size="14.00" fill="#000000">langcode </text>
<text text-anchor="start" x="114.1928" y="-236.9" font-family="Arial" font-size="14.00" fill="#666666">[varchar(32)]</text>
<polygon fill="none" stroke="#000000" points="46.5,-195.5 46.5,-225.5 339.5,-225.5 339.5,-195.5 46.5,-195.5"/>
<text text-anchor="start" x="53.5" y="-206.9" font-family="Arial" font-size="14.00" fill="#000000">delta </text>
<text text-anchor="start" x="87.7356" y="-206.9" font-family="Arial" font-size="14.00" fill="#666666">[int(10) unsigned]</text>
<polygon fill="none" stroke="#000000" points="46.5,-165.5 46.5,-195.5 339.5,-195.5 339.5,-165.5 46.5,-165.5"/>
<text text-anchor="start" x="53.5" y="-176.9" font-family="Arial" font-size="14.00" fill="#000000">field_image_target_id </text>
<text text-anchor="start" x="191.2012" y="-176.9" font-family="Arial" font-size="14.00" fill="#666666">[int(10) unsigned]</text>
<polygon fill="none" stroke="#000000" points="46.5,-135.5 46.5,-165.5 339.5,-165.5 339.5,-135.5 46.5,-135.5"/>
<text text-anchor="start" x="53.5" y="-146.9" font-family="Arial" font-size="14.00" fill="#000000">field_image_alt </text>
<text text-anchor="start" x="151.5196" y="-146.9" font-family="Arial" font-size="14.00" fill="#666666">[varchar(512)]</text>
<polygon fill="none" stroke="#000000" points="46.5,-105.5 46.5,-135.5 339.5,-135.5 339.5,-105.5 46.5,-105.5"/>
<text text-anchor="start" x="53.5" y="-116.9" font-family="Arial" font-size="14.00" fill="#000000">field_image_title </text>
<text text-anchor="start" x="158.5168" y="-116.9" font-family="Arial" font-size="14.00" fill="#666666">[varchar(1024)]</text>
<polygon fill="none" stroke="#000000" points="46.5,-75.5 46.5,-105.5 339.5,-105.5 339.5,-75.5 46.5,-75.5"/>
<text text-anchor="start" x="53.5" y="-86.9" font-family="Arial" font-size="14.00" fill="#000000">field_image_width </text>
<text text-anchor="start" x="169.4088" y="-86.9" font-family="Arial" font-size="14.00" fill="#666666">[int(10) unsigned]</text>
<polygon fill="none" stroke="#000000" points="46.5,-45.5 46.5,-75.5 339.5,-75.5 339.5,-45.5 46.5,-45.5"/>
<text text-anchor="start" x="53.5" y="-56.9" font-family="Arial" font-size="14.00" fill="#000000">field_image_height </text>
<text text-anchor="start" x="174.8674" y="-56.9" font-family="Arial" font-size="14.00" fill="#666666">[int(10) unsigned]</text>
<polygon fill="none" stroke="#000000" stroke-width="3" points="44.5,-44.5 44.5,-412.5 340.5,-412.5 340.5,-44.5 44.5,-44.5"/>
</g>
</g>
</svg>
