<?xml version="1.0" encoding="UTF-8" standalone="no"?>
<!DOCTYPE svg PUBLIC "-//W3C//DTD SVG 1.1//EN"
 "http://www.w3.org/Graphics/SVG/1.1/DTD/svg11.dtd">
<!-- Generated by graphviz version 2.40.1 (20161225.0304)
 -->
<!-- Title: search_total Pages: 1 -->
<svg width="339pt" height="195pt"
 viewBox="0.00 0.00 339.00 195.00" xmlns="http://www.w3.org/2000/svg" xmlns:xlink="http://www.w3.org/1999/xlink">
<g id="graph0" class="graph" transform="scale(1 1) rotate(0) translate(4 191)">
<title>search_total</title>
<polygon fill="#ffffff" stroke="transparent" points="-4,4 -4,-191 335,-191 335,4 -4,4"/>
<!-- search_total -->
<g id="node1" class="node">
<title>search_total</title>
<polygon fill="#efefef" stroke="transparent" points="46.5,-105.5 46.5,-140.5 285.5,-140.5 285.5,-105.5 46.5,-105.5"/>
<polygon fill="none" stroke="#000000" points="46.5,-105.5 46.5,-140.5 285.5,-140.5 285.5,-105.5 46.5,-105.5"/>
<text text-anchor="start" x="53.202" y="-118.3" font-family="Arial Bold" font-size="18.00" fill="#000000">search_total</text>
<text text-anchor="start" x="151.23" y="-118.3" font-family="Arial" font-size="14.00" fill="#000000">    </text>
<text text-anchor="start" x="185.4348" y="-118.3" font-family="Arial" font-size="14.00" fill="#666666">[BASE TABLE]</text>
<polygon fill="none" stroke="#000000" points="46.5,-75.5 46.5,-105.5 285.5,-105.5 285.5,-75.5 46.5,-75.5"/>
<text text-anchor="start" x="53.5" y="-86.9" font-family="Arial" font-size="14.00" fill="#000000">word </text>
<text text-anchor="start" x="87.723" y="-86.9" font-family="Arial" font-size="14.00" fill="#666666">[varchar(50)]</text>
<polygon fill="none" stroke="#000000" points="46.5,-45.5 46.5,-75.5 285.5,-75.5 285.5,-45.5 46.5,-45.5"/>
<text text-anchor="start" x="53.5" y="-56.9" font-family="Arial" font-size="14.00" fill="#000000">count </text>
<text text-anchor="start" x="91.629" y="-56.9" font-family="Arial" font-size="14.00" fill="#666666">[float]</text>
<polygon fill="none" stroke="#000000" stroke-width="3" points="44.5,-44.5 44.5,-142.5 286.5,-142.5 286.5,-44.5 44.5,-44.5"/>
</g>
</g>
</svg>
