<?xml version="1.0" encoding="UTF-8" standalone="no"?>
<!DOCTYPE svg PUBLIC "-//W3C//DTD SVG 1.1//EN"
 "http://www.w3.org/Graphics/SVG/1.1/DTD/svg11.dtd">
<!-- Generated by graphviz version 2.40.1 (20161225.0304)
 -->
<!-- Title: sessions Pages: 1 -->
<svg width="311pt" height="285pt"
 viewBox="0.00 0.00 311.00 285.00" xmlns="http://www.w3.org/2000/svg" xmlns:xlink="http://www.w3.org/1999/xlink">
<g id="graph0" class="graph" transform="scale(1 1) rotate(0) translate(4 281)">
<title>sessions</title>
<polygon fill="#ffffff" stroke="transparent" points="-4,4 -4,-281 307,-281 307,4 -4,4"/>
<!-- sessions -->
<g id="node1" class="node">
<title>sessions</title>
<polygon fill="#efefef" stroke="transparent" points="46.5,-195.5 46.5,-230.5 257.5,-230.5 257.5,-195.5 46.5,-195.5"/>
<polygon fill="none" stroke="#000000" points="46.5,-195.5 46.5,-230.5 257.5,-230.5 257.5,-195.5 46.5,-195.5"/>
<text text-anchor="start" x="53.2096" y="-208.3" font-family="Arial Bold" font-size="18.00" fill="#000000">sessions</text>
<text text-anchor="start" x="123.2224" y="-208.3" font-family="Arial" font-size="14.00" fill="#000000">    </text>
<text text-anchor="start" x="157.4272" y="-208.3" font-family="Arial" font-size="14.00" fill="#666666">[BASE TABLE]</text>
<polygon fill="none" stroke="#000000" points="46.5,-165.5 46.5,-195.5 257.5,-195.5 257.5,-165.5 46.5,-165.5"/>
<text text-anchor="start" x="53.5" y="-176.9" font-family="Arial" font-size="14.00" fill="#000000">uid </text>
<text text-anchor="start" x="76.0624" y="-176.9" font-family="Arial" font-size="14.00" fill="#666666">[int(10) unsigned]</text>
<polygon fill="none" stroke="#000000" points="46.5,-135.5 46.5,-165.5 257.5,-165.5 257.5,-135.5 46.5,-135.5"/>
<text text-anchor="start" x="53.5" y="-146.9" font-family="Arial" font-size="14.00" fill="#000000">sid </text>
<text text-anchor="start" x="75.2798" y="-146.9" font-family="Arial" font-size="14.00" fill="#666666">[varchar(128)]</text>
<polygon fill="none" stroke="#000000" points="46.5,-105.5 46.5,-135.5 257.5,-135.5 257.5,-105.5 46.5,-105.5"/>
<text text-anchor="start" x="53.5" y="-116.9" font-family="Arial" font-size="14.00" fill="#000000">hostname </text>
<text text-anchor="start" x="118.8548" y="-116.9" font-family="Arial" font-size="14.00" fill="#666666">[varchar(128)]</text>
<polygon fill="none" stroke="#000000" points="46.5,-75.5 46.5,-105.5 257.5,-105.5 257.5,-75.5 46.5,-75.5"/>
<text text-anchor="start" x="53.5" y="-86.9" font-family="Arial" font-size="14.00" fill="#000000">timestamp </text>
<text text-anchor="start" x="121.9474" y="-86.9" font-family="Arial" font-size="14.00" fill="#666666">[int(11)]</text>
<polygon fill="none" stroke="#000000" points="46.5,-45.5 46.5,-75.5 257.5,-75.5 257.5,-45.5 46.5,-45.5"/>
<text text-anchor="start" x="53.5" y="-56.9" font-family="Arial" font-size="14.00" fill="#000000">session </text>
<text text-anchor="start" x="104.845" y="-56.9" font-family="Arial" font-size="14.00" fill="#666666">[longblob]</text>
<polygon fill="none" stroke="#000000" stroke-width="3" points="44.5,-44.5 44.5,-232.5 258.5,-232.5 258.5,-44.5 44.5,-44.5"/>
</g>
</g>
</svg>
