<?xml version="1.0" encoding="UTF-8" standalone="no"?>
<!DOCTYPE svg PUBLIC "-//W3C//DTD SVG 1.1//EN"
 "http://www.w3.org/Graphics/SVG/1.1/DTD/svg11.dtd">
<!-- Generated by graphviz version 2.40.1 (20161225.0304)
 -->
<!-- Title: shortcut_set_users Pages: 1 -->
<svg width="393pt" height="195pt"
 viewBox="0.00 0.00 393.00 195.00" xmlns="http://www.w3.org/2000/svg" xmlns:xlink="http://www.w3.org/1999/xlink">
<g id="graph0" class="graph" transform="scale(1 1) rotate(0) translate(4 191)">
<title>shortcut_set_users</title>
<polygon fill="#ffffff" stroke="transparent" points="-4,4 -4,-191 389,-191 389,4 -4,4"/>
<!-- shortcut_set_users -->
<g id="node1" class="node">
<title>shortcut_set_users</title>
<polygon fill="#efefef" stroke="transparent" points="46.5,-105.5 46.5,-140.5 339.5,-140.5 339.5,-105.5 46.5,-105.5"/>
<polygon fill="none" stroke="#000000" points="46.5,-105.5 46.5,-140.5 339.5,-140.5 339.5,-105.5 46.5,-105.5"/>
<text text-anchor="start" x="53.1957" y="-118.3" font-family="Arial Bold" font-size="18.00" fill="#000000">shortcut_set_users</text>
<text text-anchor="start" x="205.2363" y="-118.3" font-family="Arial" font-size="14.00" fill="#000000">    </text>
<text text-anchor="start" x="239.4411" y="-118.3" font-family="Arial" font-size="14.00" fill="#666666">[BASE TABLE]</text>
<polygon fill="none" stroke="#000000" points="46.5,-75.5 46.5,-105.5 339.5,-105.5 339.5,-75.5 46.5,-75.5"/>
<text text-anchor="start" x="53.5" y="-86.9" font-family="Arial" font-size="14.00" fill="#000000">uid </text>
<text text-anchor="start" x="76.0624" y="-86.9" font-family="Arial" font-size="14.00" fill="#666666">[int(10) unsigned]</text>
<polygon fill="none" stroke="#000000" points="46.5,-45.5 46.5,-75.5 339.5,-75.5 339.5,-45.5 46.5,-45.5"/>
<text text-anchor="start" x="53.5" y="-56.9" font-family="Arial" font-size="14.00" fill="#000000">set_name </text>
<text text-anchor="start" x="118.8548" y="-56.9" font-family="Arial" font-size="14.00" fill="#666666">[varchar(32)]</text>
<polygon fill="none" stroke="#000000" stroke-width="3" points="44.5,-44.5 44.5,-142.5 340.5,-142.5 340.5,-44.5 44.5,-44.5"/>
</g>
</g>
</svg>
