<?xml version="1.0" encoding="UTF-8" standalone="no"?>
<!DOCTYPE svg PUBLIC "-//W3C//DTD SVG 1.1//EN"
 "http://www.w3.org/Graphics/SVG/1.1/DTD/svg11.dtd">
<!-- Generated by graphviz version 2.40.1 (20161225.0304)
 -->
<!-- Title: taxonomy_term_field_revision Pages: 1 -->
<svg width="480pt" height="435pt"
 viewBox="0.00 0.00 480.00 435.00" xmlns="http://www.w3.org/2000/svg" xmlns:xlink="http://www.w3.org/1999/xlink">
<g id="graph0" class="graph" transform="scale(1 1) rotate(0) translate(4 431)">
<title>taxonomy_term_field_revision</title>
<polygon fill="#ffffff" stroke="transparent" points="-4,4 -4,-431 476,-431 476,4 -4,4"/>
<!-- taxonomy_term_field_revision -->
<g id="node1" class="node">
<title>taxonomy_term_field_revision</title>
<polygon fill="#efefef" stroke="transparent" points="46,-345.5 46,-380.5 426,-380.5 426,-345.5 46,-345.5"/>
<polygon fill="none" stroke="#000000" points="46,-345.5 46,-380.5 426,-380.5 426,-345.5 46,-345.5"/>
<text text-anchor="start" x="52.6996" y="-358.3" font-family="Arial Bold" font-size="18.00" fill="#000000">taxonomy_term_field_revision</text>
<text text-anchor="start" x="291.7324" y="-358.3" font-family="Arial" font-size="14.00" fill="#000000">    </text>
<text text-anchor="start" x="325.9372" y="-358.3" font-family="Arial" font-size="14.00" fill="#666666">[BASE TABLE]</text>
<polygon fill="none" stroke="#000000" points="46,-315.5 46,-345.5 426,-345.5 426,-315.5 46,-315.5"/>
<text text-anchor="start" x="53" y="-326.9" font-family="Arial" font-size="14.00" fill="#000000">tid </text>
<text text-anchor="start" x="71.6704" y="-326.9" font-family="Arial" font-size="14.00" fill="#666666">[int(10) unsigned]</text>
<polygon fill="none" stroke="#000000" points="46,-285.5 46,-315.5 426,-315.5 426,-285.5 46,-285.5"/>
<text text-anchor="start" x="53" y="-296.9" font-family="Arial" font-size="14.00" fill="#000000">revision_id </text>
<text text-anchor="start" x="123.784" y="-296.9" font-family="Arial" font-size="14.00" fill="#666666">[int(10) unsigned]</text>
<polygon fill="none" stroke="#000000" points="46,-255.5 46,-285.5 426,-285.5 426,-255.5 46,-255.5"/>
<text text-anchor="start" x="53" y="-266.9" font-family="Arial" font-size="14.00" fill="#000000">langcode </text>
<text text-anchor="start" x="113.6928" y="-266.9" font-family="Arial" font-size="14.00" fill="#666666">[varchar(12)]</text>
<polygon fill="none" stroke="#000000" points="46,-225.5 46,-255.5 426,-255.5 426,-225.5 46,-225.5"/>
<text text-anchor="start" x="53" y="-236.9" font-family="Arial" font-size="14.00" fill="#000000">status </text>
<text text-anchor="start" x="94.237" y="-236.9" font-family="Arial" font-size="14.00" fill="#666666">[tinyint(4)]</text>
<polygon fill="none" stroke="#000000" points="46,-195.5 46,-225.5 426,-225.5 426,-195.5 46,-195.5"/>
<text text-anchor="start" x="53" y="-206.9" font-family="Arial" font-size="14.00" fill="#000000">name </text>
<text text-anchor="start" x="91.899" y="-206.9" font-family="Arial" font-size="14.00" fill="#666666">[varchar(255)]</text>
<polygon fill="none" stroke="#000000" points="46,-165.5 46,-195.5 426,-195.5 426,-165.5 46,-165.5"/>
<text text-anchor="start" x="53" y="-176.9" font-family="Arial" font-size="14.00" fill="#000000">description__value </text>
<text text-anchor="start" x="173.5876" y="-176.9" font-family="Arial" font-size="14.00" fill="#666666">[longtext]</text>
<polygon fill="none" stroke="#000000" points="46,-135.5 46,-165.5 426,-165.5 426,-135.5 46,-135.5"/>
<text text-anchor="start" x="53" y="-146.9" font-family="Arial" font-size="14.00" fill="#000000">description__format </text>
<text text-anchor="start" x="179.8008" y="-146.9" font-family="Arial" font-size="14.00" fill="#666666">[varchar(255)]</text>
<polygon fill="none" stroke="#000000" points="46,-105.5 46,-135.5 426,-135.5 426,-105.5 46,-105.5"/>
<text text-anchor="start" x="53" y="-116.9" font-family="Arial" font-size="14.00" fill="#000000">changed </text>
<text text-anchor="start" x="110.5862" y="-116.9" font-family="Arial" font-size="14.00" fill="#666666">[int(11)]</text>
<polygon fill="none" stroke="#000000" points="46,-75.5 46,-105.5 426,-105.5 426,-75.5 46,-75.5"/>
<text text-anchor="start" x="53" y="-86.9" font-family="Arial" font-size="14.00" fill="#000000">default_langcode </text>
<text text-anchor="start" x="163.4936" y="-86.9" font-family="Arial" font-size="14.00" fill="#666666">[tinyint(4)]</text>
<polygon fill="none" stroke="#000000" points="46,-45.5 46,-75.5 426,-75.5 426,-45.5 46,-45.5"/>
<text text-anchor="start" x="53" y="-56.9" font-family="Arial" font-size="14.00" fill="#000000">revision_translation_affected </text>
<text text-anchor="start" x="235.0476" y="-56.9" font-family="Arial" font-size="14.00" fill="#666666">[tinyint(4)]</text>
<polygon fill="none" stroke="#000000" stroke-width="3" points="44.5,-44.5 44.5,-382.5 427.5,-382.5 427.5,-44.5 44.5,-44.5"/>
</g>
</g>
</svg>
