<?xml version="1.0" encoding="UTF-8" standalone="no"?>
<!DOCTYPE svg PUBLIC "-//W3C//DTD SVG 1.1//EN"
 "http://www.w3.org/Graphics/SVG/1.1/DTD/svg11.dtd">
<!-- Generated by graphviz version 2.40.1 (20161225.0304)
 -->
<!-- Title: users_field_data Pages: 1 -->
<svg width="373pt" height="585pt"
 viewBox="0.00 0.00 373.00 585.00" xmlns="http://www.w3.org/2000/svg" xmlns:xlink="http://www.w3.org/1999/xlink">
<g id="graph0" class="graph" transform="scale(1 1) rotate(0) translate(4 581)">
<title>users_field_data</title>
<polygon fill="#ffffff" stroke="transparent" points="-4,4 -4,-581 369,-581 369,4 -4,4"/>
<!-- users_field_data -->
<g id="node1" class="node">
<title>users_field_data</title>
<polygon fill="#efefef" stroke="transparent" points="46.5,-495.5 46.5,-530.5 319.5,-530.5 319.5,-495.5 46.5,-495.5"/>
<polygon fill="none" stroke="#000000" points="46.5,-495.5 46.5,-530.5 319.5,-530.5 319.5,-495.5 46.5,-495.5"/>
<text text-anchor="start" x="53.1956" y="-508.3" font-family="Arial Bold" font-size="18.00" fill="#000000">users_field_data</text>
<text text-anchor="start" x="185.2364" y="-508.3" font-family="Arial" font-size="14.00" fill="#000000">    </text>
<text text-anchor="start" x="219.4412" y="-508.3" font-family="Arial" font-size="14.00" fill="#666666">[BASE TABLE]</text>
<polygon fill="none" stroke="#000000" points="46.5,-465.5 46.5,-495.5 319.5,-495.5 319.5,-465.5 46.5,-465.5"/>
<text text-anchor="start" x="53.5" y="-476.9" font-family="Arial" font-size="14.00" fill="#000000">uid </text>
<text text-anchor="start" x="76.0624" y="-476.9" font-family="Arial" font-size="14.00" fill="#666666">[int(10) unsigned]</text>
<polygon fill="none" stroke="#000000" points="46.5,-435.5 46.5,-465.5 319.5,-465.5 319.5,-435.5 46.5,-435.5"/>
<text text-anchor="start" x="53.5" y="-446.9" font-family="Arial" font-size="14.00" fill="#000000">langcode </text>
<text text-anchor="start" x="114.1928" y="-446.9" font-family="Arial" font-size="14.00" fill="#666666">[varchar(12)]</text>
<polygon fill="none" stroke="#000000" points="46.5,-405.5 46.5,-435.5 319.5,-435.5 319.5,-405.5 46.5,-405.5"/>
<text text-anchor="start" x="53.5" y="-416.9" font-family="Arial" font-size="14.00" fill="#000000">preferred_langcode </text>
<text text-anchor="start" x="178.7608" y="-416.9" font-family="Arial" font-size="14.00" fill="#666666">[varchar(12)]</text>
<polygon fill="none" stroke="#000000" points="46.5,-375.5 46.5,-405.5 319.5,-405.5 319.5,-375.5 46.5,-375.5"/>
<text text-anchor="start" x="53.5" y="-386.9" font-family="Arial" font-size="14.00" fill="#000000">preferred_admin_langcode </text>
<text text-anchor="start" x="224.6584" y="-386.9" font-family="Arial" font-size="14.00" fill="#666666">[varchar(12)]</text>
<polygon fill="none" stroke="#000000" points="46.5,-345.5 46.5,-375.5 319.5,-375.5 319.5,-345.5 46.5,-345.5"/>
<text text-anchor="start" x="53.5" y="-356.9" font-family="Arial" font-size="14.00" fill="#000000">name </text>
<text text-anchor="start" x="92.399" y="-356.9" font-family="Arial" font-size="14.00" fill="#666666">[varchar(60)]</text>
<polygon fill="none" stroke="#000000" points="46.5,-315.5 46.5,-345.5 319.5,-345.5 319.5,-315.5 46.5,-315.5"/>
<text text-anchor="start" x="53.5" y="-326.9" font-family="Arial" font-size="14.00" fill="#000000">pass </text>
<text text-anchor="start" x="86.9558" y="-326.9" font-family="Arial" font-size="14.00" fill="#666666">[varchar(255)]</text>
<polygon fill="none" stroke="#000000" points="46.5,-285.5 46.5,-315.5 319.5,-315.5 319.5,-285.5 46.5,-285.5"/>
<text text-anchor="start" x="53.5" y="-296.9" font-family="Arial" font-size="14.00" fill="#000000">mail </text>
<text text-anchor="start" x="83.047" y="-296.9" font-family="Arial" font-size="14.00" fill="#666666">[varchar(254)]</text>
<polygon fill="none" stroke="#000000" points="46.5,-255.5 46.5,-285.5 319.5,-285.5 319.5,-255.5 46.5,-255.5"/>
<text text-anchor="start" x="53.5" y="-266.9" font-family="Arial" font-size="14.00" fill="#000000">timezone </text>
<text text-anchor="start" x="114.1788" y="-266.9" font-family="Arial" font-size="14.00" fill="#666666">[varchar(32)]</text>
<polygon fill="none" stroke="#000000" points="46.5,-225.5 46.5,-255.5 319.5,-255.5 319.5,-225.5 46.5,-225.5"/>
<text text-anchor="start" x="53.5" y="-236.9" font-family="Arial" font-size="14.00" fill="#000000">status </text>
<text text-anchor="start" x="94.737" y="-236.9" font-family="Arial" font-size="14.00" fill="#666666">[tinyint(4)]</text>
<polygon fill="none" stroke="#000000" points="46.5,-195.5 46.5,-225.5 319.5,-225.5 319.5,-195.5 46.5,-195.5"/>
<text text-anchor="start" x="53.5" y="-206.9" font-family="Arial" font-size="14.00" fill="#000000">created </text>
<text text-anchor="start" x="104.0722" y="-206.9" font-family="Arial" font-size="14.00" fill="#666666">[int(11)]</text>
<polygon fill="none" stroke="#000000" points="46.5,-165.5 46.5,-195.5 319.5,-195.5 319.5,-165.5 46.5,-165.5"/>
<text text-anchor="start" x="53.5" y="-176.9" font-family="Arial" font-size="14.00" fill="#000000">changed </text>
<text text-anchor="start" x="111.0862" y="-176.9" font-family="Arial" font-size="14.00" fill="#666666">[int(11)]</text>
<polygon fill="none" stroke="#000000" points="46.5,-135.5 46.5,-165.5 319.5,-165.5 319.5,-135.5 46.5,-135.5"/>
<text text-anchor="start" x="53.5" y="-146.9" font-family="Arial" font-size="14.00" fill="#000000">access </text>
<text text-anchor="start" x="100.9558" y="-146.9" font-family="Arial" font-size="14.00" fill="#666666">[int(11)]</text>
<polygon fill="none" stroke="#000000" points="46.5,-105.5 46.5,-135.5 319.5,-135.5 319.5,-105.5 46.5,-105.5"/>
<text text-anchor="start" x="53.5" y="-116.9" font-family="Arial" font-size="14.00" fill="#000000">login </text>
<text text-anchor="start" x="86.9516" y="-116.9" font-family="Arial" font-size="14.00" fill="#666666">[int(11)]</text>
<polygon fill="none" stroke="#000000" points="46.5,-75.5 46.5,-105.5 319.5,-105.5 319.5,-75.5 46.5,-75.5"/>
<text text-anchor="start" x="53.5" y="-86.9" font-family="Arial" font-size="14.00" fill="#000000">init </text>
<text text-anchor="start" x="75.277" y="-86.9" font-family="Arial" font-size="14.00" fill="#666666">[varchar(254)]</text>
<polygon fill="none" stroke="#000000" points="46.5,-45.5 46.5,-75.5 319.5,-75.5 319.5,-45.5 46.5,-45.5"/>
<text text-anchor="start" x="53.5" y="-56.9" font-family="Arial" font-size="14.00" fill="#000000">default_langcode </text>
<text text-anchor="start" x="163.9936" y="-56.9" font-family="Arial" font-size="14.00" fill="#666666">[tinyint(4)]</text>
<polygon fill="none" stroke="#000000" stroke-width="3" points="44.5,-44.5 44.5,-532.5 320.5,-532.5 320.5,-44.5 44.5,-44.5"/>
</g>
</g>
</svg>
