<?xml version="1.0" encoding="UTF-8" standalone="no"?>
<!DOCTYPE svg PUBLIC "-//W3C//DTD SVG 1.1//EN"
 "http://www.w3.org/Graphics/SVG/1.1/DTD/svg11.dtd">
<!-- Generated by graphviz version 2.40.1 (20161225.0304)
 -->
<!-- Title: user__user_picture Pages: 1 -->
<svg width="395pt" height="465pt"
 viewBox="0.00 0.00 395.00 465.00" xmlns="http://www.w3.org/2000/svg" xmlns:xlink="http://www.w3.org/1999/xlink">
<g id="graph0" class="graph" transform="scale(1 1) rotate(0) translate(4 461)">
<title>user__user_picture</title>
<polygon fill="#ffffff" stroke="transparent" points="-4,4 -4,-461 391,-461 391,4 -4,4"/>
<!-- user__user_picture -->
<g id="node1" class="node">
<title>user__user_picture</title>
<polygon fill="#efefef" stroke="transparent" points="46.5,-375.5 46.5,-410.5 341.5,-410.5 341.5,-375.5 46.5,-375.5"/>
<polygon fill="none" stroke="#000000" points="46.5,-375.5 46.5,-410.5 341.5,-410.5 341.5,-375.5 46.5,-375.5"/>
<text text-anchor="start" x="53.1985" y="-388.3" font-family="Arial Bold" font-size="18.00" fill="#000000">user__user_picture</text>
<text text-anchor="start" x="207.2335" y="-388.3" font-family="Arial" font-size="14.00" fill="#000000">    </text>
<text text-anchor="start" x="241.4383" y="-388.3" font-family="Arial" font-size="14.00" fill="#666666">[BASE TABLE]</text>
<polygon fill="none" stroke="#000000" points="46.5,-345.5 46.5,-375.5 341.5,-375.5 341.5,-345.5 46.5,-345.5"/>
<text text-anchor="start" x="53.5" y="-356.9" font-family="Arial" font-size="14.00" fill="#000000">bundle </text>
<text text-anchor="start" x="99.4102" y="-356.9" font-family="Arial" font-size="14.00" fill="#666666">[varchar(128)]</text>
<polygon fill="none" stroke="#000000" points="46.5,-315.5 46.5,-345.5 341.5,-345.5 341.5,-315.5 46.5,-315.5"/>
<text text-anchor="start" x="53.5" y="-326.9" font-family="Arial" font-size="14.00" fill="#000000">deleted </text>
<text text-anchor="start" x="103.3008" y="-326.9" font-family="Arial" font-size="14.00" fill="#666666">[tinyint(4)]</text>
<polygon fill="none" stroke="#000000" points="46.5,-285.5 46.5,-315.5 341.5,-315.5 341.5,-285.5 46.5,-285.5"/>
<text text-anchor="start" x="53.5" y="-296.9" font-family="Arial" font-size="14.00" fill="#000000">entity_id </text>
<text text-anchor="start" x="109.5154" y="-296.9" font-family="Arial" font-size="14.00" fill="#666666">[int(10) unsigned]</text>
<polygon fill="none" stroke="#000000" points="46.5,-255.5 46.5,-285.5 341.5,-285.5 341.5,-255.5 46.5,-255.5"/>
<text text-anchor="start" x="53.5" y="-266.9" font-family="Arial" font-size="14.00" fill="#000000">revision_id </text>
<text text-anchor="start" x="124.284" y="-266.9" font-family="Arial" font-size="14.00" fill="#666666">[int(10) unsigned]</text>
<polygon fill="none" stroke="#000000" points="46.5,-225.5 46.5,-255.5 341.5,-255.5 341.5,-225.5 46.5,-225.5"/>
<text text-anchor="start" x="53.5" y="-236.9" font-family="Arial" font-size="14.00" fill="#000000">langcode </text>
<text text-anchor="start" x="114.1928" y="-236.9" font-family="Arial" font-size="14.00" fill="#666666">[varchar(32)]</text>
<polygon fill="none" stroke="#000000" points="46.5,-195.5 46.5,-225.5 341.5,-225.5 341.5,-195.5 46.5,-195.5"/>
<text text-anchor="start" x="53.5" y="-206.9" font-family="Arial" font-size="14.00" fill="#000000">delta </text>
<text text-anchor="start" x="87.7356" y="-206.9" font-family="Arial" font-size="14.00" fill="#666666">[int(10) unsigned]</text>
<polygon fill="none" stroke="#000000" points="46.5,-165.5 46.5,-195.5 341.5,-195.5 341.5,-165.5 46.5,-165.5"/>
<text text-anchor="start" x="53.5" y="-176.9" font-family="Arial" font-size="14.00" fill="#000000">user_picture_target_id </text>
<text text-anchor="start" x="196.6486" y="-176.9" font-family="Arial" font-size="14.00" fill="#666666">[int(10) unsigned]</text>
<polygon fill="none" stroke="#000000" points="46.5,-135.5 46.5,-165.5 341.5,-165.5 341.5,-135.5 46.5,-135.5"/>
<text text-anchor="start" x="53.5" y="-146.9" font-family="Arial" font-size="14.00" fill="#000000">user_picture_alt </text>
<text text-anchor="start" x="156.967" y="-146.9" font-family="Arial" font-size="14.00" fill="#666666">[varchar(512)]</text>
<polygon fill="none" stroke="#000000" points="46.5,-105.5 46.5,-135.5 341.5,-135.5 341.5,-105.5 46.5,-105.5"/>
<text text-anchor="start" x="53.5" y="-116.9" font-family="Arial" font-size="14.00" fill="#000000">user_picture_title </text>
<text text-anchor="start" x="163.9642" y="-116.9" font-family="Arial" font-size="14.00" fill="#666666">[varchar(1024)]</text>
<polygon fill="none" stroke="#000000" points="46.5,-75.5 46.5,-105.5 341.5,-105.5 341.5,-75.5 46.5,-75.5"/>
<text text-anchor="start" x="53.5" y="-86.9" font-family="Arial" font-size="14.00" fill="#000000">user_picture_width </text>
<text text-anchor="start" x="174.8562" y="-86.9" font-family="Arial" font-size="14.00" fill="#666666">[int(10) unsigned]</text>
<polygon fill="none" stroke="#000000" points="46.5,-45.5 46.5,-75.5 341.5,-75.5 341.5,-45.5 46.5,-45.5"/>
<text text-anchor="start" x="53.5" y="-56.9" font-family="Arial" font-size="14.00" fill="#000000">user_picture_height </text>
<text text-anchor="start" x="180.3148" y="-56.9" font-family="Arial" font-size="14.00" fill="#666666">[int(10) unsigned]</text>
<polygon fill="none" stroke="#000000" stroke-width="3" points="44.5,-44.5 44.5,-412.5 342.5,-412.5 342.5,-44.5 44.5,-44.5"/>
</g>
</g>
</svg>
